<?xml version="1.0" encoding="utf-8"?>
<!-- Generator: Adobe Illustrator 19.1.0, SVG Export Plug-In . SVG Version: 6.00 Build 0)  -->
<svg version="1.1" id="图层_1" xmlns="http://www.w3.org/2000/svg" xmlns:xlink="http://www.w3.org/1999/xlink" x="0px" y="0px"
	 viewBox="0 0 615 59.1" style="enable-background:new 0 0 615 59.1;" xml:space="preserve">
<style type="text/css">
	.st0{fill:#CA7F84;}
	.st1{fill:#F8DBDA;}
	.st2{fill:#BEC895;}
	.st3{fill:#6E9E8E;}
	.st4{fill:#F5D9AA;}
	.st5{fill:#E1C48C;}
	.st6{fill:none;}
	.st7{fill:#040000;}
	.st8{font-family:'SavoyeLetPlain';}
	.st9{font-size:48px;}
</style>
<path class="st0" d="M455.7,30.1c0.2,5,9.1,9.1,12.2,7.4c4.2-2.4,1.3-6.8,1.3-7.3s2.9-4.9-1.3-7.3C464.8,21.2,455.8,25.1,455.7,30.1
	L455.7,30.1z"/>
<path class="st0" d="M454.3,28.5c4.8,1.4,11.5-5.9,10.8-9.4c-1-4.8-6-3.4-6.5-3.5c-0.5-0.2-3.8-4.3-7.3-1
	C448.7,17.1,449.7,26.8,454.3,28.5L454.3,28.5z"/>
<path class="st0" d="M452.4,29.2c2.8-4.1-2-12.7-5.6-13.2c-4.8-0.6-5.1,4.7-5.3,5.1c-0.3,0.4-5.2,2.3-3.2,6.7
	C439.8,31.1,449.4,33.2,452.4,29.2L452.4,29.2z"/>
<path class="st0" d="M452.6,31.3c-3.1-3.9-12.8-2-14.2,1.3c-2,4.4,2.9,6.3,3.2,6.7c0.3,0.4,0.5,5.7,5.4,5.1
	C450.4,43.9,455.4,35.4,452.6,31.3L452.6,31.3z"/>
<path class="st0" d="M454.5,31.8c-4.7,1.7-5.8,11.5-3.2,13.9c3.6,3.3,6.8-0.8,7.3-1s5.5,1.2,6.5-3.5
	C465.8,37.7,459.3,30.4,454.5,31.8L454.5,31.8z"/>
<path class="st1" d="M457.9,29.4c0.7-0.3,1.3-0.6,1.6-0.9c-0.5-0.1-1.3,0-2.2,0.2c2.1-1.3,4.5-3.1,5.1-4.6c-1.7,0.1-4.4,2-6.2,3.6
	c0.5-0.8,0.9-1.7,1-2.3c-0.6,0.3-1.1,0.4-1.7,1.3c0.7-2.1,1.4-5.1,1.2-6.9c-1.2,1.6-2,4.3-2.5,6.3c-0.1-0.5-0.2-1.6-0.4-1.9
	c-0.2,0.3-0.4,0.9-0.5,1.4c-0.6-2.2-1.4-4.5-2.5-5.5c-0.4,1.7,0.5,4.7,1.4,7.1c-0.6-0.8-1.3-1.4-1.8-1.7c0.1,0.6,0.5,1.5,1.1,2.3
	c-2-1.6-4.7-3.3-6.5-3.3c0.7,1.4,2.8,2.9,4.8,4c-0.6-0.1-1.1-0.1-1.5,0c0.3,0.3,0.8,0.6,1.4,0.9c-2.3-0.2-5-0.1-6.4,0.7
	c1.4,0.9,4.6,1,7,0.8c-0.9,0.3-1.7,0.7-2,1.2c0.6,0.1,1.4,0,2.3-0.3c-2.1,1.4-4.4,3.3-5,4.9c1.5-0.2,3.7-1.7,5.4-3.2
	c-0.3,0.5-0.5,1.1-0.6,1.5c0.4-0.2,0.8-0.5,1.2-0.9c-0.9,2.1-1.7,4.6-1.4,6.1c1.3-1.1,2.5-4.1,3.1-6.5c0,1,0.1,1.9,0.5,2.4
	c0.3-0.6,0.5-1.5,0.5-2.6c0.7,2.4,1.9,5.5,3.2,6.6c0.3-1.6-0.6-4.4-1.7-6.6c0.6,0.6,1.1,1.1,1.6,1.3c-0.1-0.4-0.3-1-0.7-1.5
	c1.8,1.5,4.1,2.9,5.7,2.9c-0.6-1.5-2.9-3.2-5-4.4c0.7,0.2,1.4,0.3,1.9,0.1c-0.3-0.4-0.9-0.7-1.5-0.9c2.4,0.2,5.2,0,6.5-0.8
	C463.1,29.4,460.3,29.2,457.9,29.4L457.9,29.4z"/>
<path class="st2" d="M457,30.2c0-2.4-2.8-4.2-5.4-2.3c-1.9,2.6-0.2,5.4,2.3,5.4C455.6,33.3,457,31.9,457,30.2L457,30.2z"/>
<path class="st3" d="M499.8,27.6c-1.4-1.6-0.9-14.3,3.7-17.7C506.4,14.9,501.7,26.7,499.8,27.6L499.8,27.6z M500.9,31.1
	c2.1-0.4,12.9,6.4,13.5,12C508.7,43.2,500.8,33.2,500.9,31.1L500.9,31.1z M500,31.7c2,0.7,8,11.9,5.6,17.2
	C500.7,46.1,498.8,33.4,500,31.7L500,31.7z M498.9,31.8c1.4,1.6,0.9,14.3-3.7,17.7C492.3,44.5,497,32.7,498.9,31.8L498.9,31.8z
	 M498,31.3c0.4,2.1-6.4,12.9-12,13.5C485.9,39,495.8,31.1,498,31.3L498,31.3z M497.4,30.4c-0.7,2-11.9,8-17.2,5.6
	C483,31,495.6,29.1,497.4,30.4L497.4,30.4z M497.3,29.3c-1.6,1.4-14.3,0.9-17.7-3.7C484.5,22.7,496.4,27.3,497.3,29.3L497.3,29.3z
	 M497.8,28.3c-2.1,0.4-12.9-6.4-13.5-12C490.1,16.2,498,26.2,497.8,28.3L497.8,28.3z M498.7,27.7c-2-0.7-8-11.9-5.6-17.2
	C498.1,13.3,499.9,26,498.7,27.7L498.7,27.7z M500.8,28.1c-0.4-2.1,6.4-12.9,12-13.5C512.9,20.4,502.9,28.3,500.8,28.1L500.8,28.1z
	 M501.4,29c0.7-2,11.9-8,17.2-5.6C515.7,28.4,503.1,30.3,501.4,29L501.4,29z M501.4,30.1c1.6-1.4,14.3-0.9,17.7,3.7
	C514.2,36.7,502.3,32.1,501.4,30.1L501.4,30.1z"/>
<path class="st2" d="M500.3,27.8c-1-1.9,2.4-14.2,7.7-16.3C509.6,16.9,502.3,27.4,500.3,27.8L500.3,27.8z M500.6,31.4
	c2.1,0.1,11.1,9.2,10.3,14.8C505.3,45,499.9,33.4,500.6,31.4L500.6,31.4z M499.5,31.8c1.8,1.1,5,13.5,1.5,18
	C496.9,45.9,498,33.2,499.5,31.8L499.5,31.8z M498.5,31.6c1,1.9-2.4,14.2-7.7,16.3C489.1,42.5,496.4,32,498.5,31.6L498.5,31.6z
	 M497.6,30.9c-0.1,2.1-9.2,11.1-14.8,10.3C484.1,35.7,495.6,30.2,497.6,30.9L497.6,30.9z M497.3,29.9c-1.1,1.8-13.5,5-18,1.5
	C483.1,27.2,495.9,28.3,497.3,29.9L497.3,29.9z M497.5,28.8c-1.9,1-14.2-2.4-16.3-7.7C486.6,19.4,497,26.7,497.5,28.8L497.5,28.8z
	 M498.2,28c-2.1-0.1-11.1-9.2-10.3-14.8C493.4,14.4,498.8,26,498.2,28L498.2,28z M499.2,27.6c-1.8-1.1-5-13.5-1.5-18
	C501.9,13.5,500.8,26.2,499.2,27.6L499.2,27.6z M501.1,28.5c0.1-2.1,9.2-11.1,14.8-10.3C514.7,23.7,503.1,29.2,501.1,28.5
	L501.1,28.5z M501.5,29.5c1.1-1.8,13.5-5,18-1.5C515.6,32.2,502.9,31.1,501.5,29.5L501.5,29.5z M501.3,30.6c1.9-1,14.2,2.4,16.3,7.7
	C512.2,40,501.7,32.7,501.3,30.6L501.3,30.6z"/>
<path class="st3" d="M499.8,28.8c-0.5-0.9,1.1-6.7,3.6-7.8C504.2,23.6,500.8,28.6,499.8,28.8L499.8,28.8z M499.9,30.5
	c1,0,5.3,4.3,4.9,7C502.2,37,499.6,31.5,499.9,30.5L499.9,30.5z M499.5,30.7c0.9,0.5,2.4,6.4,0.7,8.5
	C498.2,37.4,498.7,31.4,499.5,30.7L499.5,30.7z M498.9,30.6c0.5,0.9-1.1,6.7-3.6,7.8C494.5,35.8,498,30.8,498.9,30.6L498.9,30.6z
	 M498.5,30.3c0,1-4.3,5.3-7,4.9C492.1,32.5,497.6,30,498.5,30.3L498.5,30.3z M498.4,29.8c-0.5,0.9-6.4,2.4-8.5,0.7
	C491.7,28.5,497.7,29,498.4,29.8L498.4,29.8z M498.5,29.3c-0.9,0.5-6.7-1.1-7.8-3.6C493.3,24.8,498.3,28.3,498.5,29.3L498.5,29.3z
	 M498.8,28.9c-1,0-5.3-4.3-4.9-7C496.5,22.4,499.1,27.9,498.8,28.9L498.8,28.9z M499.3,28.7c-0.9-0.5-2.4-6.4-0.7-8.5
	C500.6,22,500,28,499.3,28.7L499.3,28.7z M500.2,29.1c0-1,4.3-5.3,7-4.9C506.6,26.9,501.1,29.4,500.2,29.1L500.2,29.1z M500.4,29.6
	c0.5-0.9,6.4-2.4,8.5-0.7C507.1,30.9,501,30.4,500.4,29.6L500.4,29.6z M500.3,30.1c0.9-0.5,6.7,1.1,7.8,3.6
	C505.5,34.6,500.5,31.1,500.3,30.1L500.3,30.1z"/>
<path class="st4" d="M502.9,30.4c0.6-2.8-2.2-5.5-5.6-3.9c-2.9,2.5-1.5,6.1,1.3,6.7C500.6,33.7,502.5,32.4,502.9,30.4L502.9,30.4z"
	/>
<path class="st0" d="M286.7,30.2c-1.4-1.2-2.6-11.9,0.9-15.3C290.7,18.7,288.2,29.3,286.7,30.2L286.7,30.2z M288.1,33
	c1.7-0.6,11.6,3.8,12.8,8.5C296.1,42.3,288.2,34.8,288.1,33L288.1,33z M287.4,33.6c1.8,0.3,8.2,9.1,6.8,13.7
	C289.7,45.6,286.6,35.3,287.4,33.6L287.4,33.6z M286.5,33.8c1.4,1.2,2.6,11.9-0.9,15.3C282.5,45.4,285,34.8,286.5,33.8L286.5,33.8z
	 M285.6,33.5c0.6,1.7-3.8,11.6-8.5,12.8C276.4,41.5,283.8,33.6,285.6,33.5L285.6,33.5z M285,32.8c-0.3,1.8-9.1,8.2-13.7,6.8
	C273,35.2,283.4,32,285,32.8L285,32.8z M284.8,31.9c-1.2,1.4-11.9,2.6-15.3-0.9C273.3,27.9,283.8,30.4,284.8,31.9L284.8,31.9z
	 M285.1,31c-1.7,0.6-11.6-3.8-12.8-8.5C277.1,21.8,285,29.2,285.1,31L285.1,31z M285.8,30.4c-1.8-0.3-8.2-9.1-6.8-13.7
	C283.5,18.4,286.6,28.8,285.8,30.4L285.8,30.4z M287.6,30.5c-0.6-1.7,3.8-11.6,8.5-12.8C296.8,22.5,289.4,30.4,287.6,30.5
	L287.6,30.5z M288.2,31.2c0.3-1.8,9.1-8.2,13.7-6.8C300.2,28.9,289.8,32,288.2,31.2L288.2,31.2z M288.4,32.1
	c1.2-1.4,11.9-2.6,15.3,0.9C299.9,36.1,289.4,33.7,288.4,32.1L288.4,32.1z"/>
<path class="st1" d="M287.1,30.3c-1.1-1.4,0.3-12.2,4.4-14.7C293.7,20,288.8,29.7,287.1,30.3L287.1,30.3z M287.8,33.4
	c1.8-0.2,10.4,6.3,10.5,11.2C293.5,44.2,287.5,35.1,287.8,33.4L287.8,33.4z M287,33.8c1.7,0.7,5.9,10.7,3.5,14.9
	C286.5,46,285.8,35.2,287,33.8L287,33.8z M286.1,33.8c1.1,1.4-0.3,12.2-4.4,14.7C279.5,44.1,284.4,34.4,286.1,33.8L286.1,33.8z
	 M285.3,33.3c0.2,1.8-6.3,10.4-11.2,10.5C274.5,38.9,283.5,33,285.3,33.3L285.3,33.3z M284.8,32.4c-0.7,1.7-10.7,5.9-14.9,3.5
	C272.7,31.9,283.5,31.3,284.8,32.4L284.8,32.4z M284.9,31.5c-1.4,1.1-12.2-0.3-14.7-4.4C274.6,25,284.3,29.8,284.9,31.5L284.9,31.5z
	 M285.4,30.7c-1.8,0.2-10.4-6.3-10.5-11.2C279.7,19.9,285.7,29,285.4,30.7L285.4,30.7z M286.2,30.3c-1.7-0.7-5.9-10.7-3.5-14.9
	C286.7,18.1,287.3,28.9,286.2,30.3L286.2,30.3z M287.9,30.8c-0.2-1.8,6.3-10.4,11.2-10.5C298.7,25.1,289.7,31.1,287.9,30.8
	L287.9,30.8z M288.3,31.6c0.7-1.7,10.7-5.9,14.9-3.5C300.5,32.1,289.7,32.8,288.3,31.6L288.3,31.6z M288.3,32.6
	c1.4-1.1,12.2,0.3,14.7,4.4C298.6,39.1,288.9,34.3,288.3,32.6L288.3,32.6z"/>
<path class="st0" d="M286.8,31.2c-0.5-0.7,0.1-5.8,2.1-7C289.9,26.3,287.6,30.9,286.8,31.2L286.8,31.2z M287.2,32.7
	c0.8-0.1,5,3,5,5.3C289.9,37.8,287,33.5,287.2,32.7L287.2,32.7z M286.8,32.9c0.8,0.3,2.8,5.1,1.7,7.1
	C286.6,38.7,286.2,33.5,286.8,32.9L286.8,32.9z M286.4,32.9c0.5,0.7-0.1,5.8-2.1,7C283.2,37.8,285.5,33.1,286.4,32.9L286.4,32.9z
	 M286,32.6c0.1,0.8-3,5-5.3,5C280.8,35.3,285.1,32.5,286,32.6L286,32.6z M285.8,32.2c-0.3,0.8-5.1,2.8-7.1,1.7
	C280,32,285.1,31.7,285.8,32.2L285.8,32.2z M285.8,31.8c-0.7,0.5-5.8-0.1-7-2.1C280.9,28.7,285.5,31,285.8,31.8L285.8,31.8z
	 M286,31.4c-0.8,0.1-5-3-5-5.3C283.3,26.3,286.2,30.6,286,31.4L286,31.4z M286.4,31.2c-0.8-0.3-2.8-5.1-1.7-7.1
	C286.6,25.4,287,30.6,286.4,31.2L286.4,31.2z M287.2,31.5c-0.1-0.8,3-5,5.3-5C292.4,28.8,288.1,31.6,287.2,31.5L287.2,31.5z
	 M287.4,31.8c0.3-0.8,5.1-2.8,7.1-1.7C293.2,32.1,288.1,32.4,287.4,31.8L287.4,31.8z M287.4,32.3c0.7-0.5,5.8,0.1,7,2.1
	C292.3,35.4,287.7,33.1,287.4,32.3L287.4,32.3z"/>
<path class="st4" d="M289.7,32.2c0.1-2.4-2.5-4.4-5.2-2.6c-2.1,2.4-0.5,5.3,1.9,5.5C288.1,35.2,289.6,33.9,289.7,32.2L289.7,32.2z"
	/>
<path class="st0" d="M589.7,31.9c-1.7,3.5,6.7,11.6,9.8,11.6c4.2,0.1,0.8-5.6,0.9-6c0.2-0.3,6.9-0.8,4.4-4.2
	C603,30.8,591.6,28.4,589.7,31.9L589.7,31.9z"/>
<path class="st0" d="M589.4,30.1c2.9,2.7,13.1-2.8,14.1-5.8c1.4-4-5.1-2.5-5.4-2.7c-0.3-0.3,1.4-6.8-2.7-5.4
	C592.4,17.1,586.7,27.1,589.4,30.1L589.4,30.1z"/>
<path class="st0" d="M587.5,29.8c3.4-1.9,1.4-13.3-1.1-15.2c-3.4-2.6-3.9,4.1-4.3,4.3c-0.4,0.2-6-3.4-6,0.9
	C576.1,22.9,583.9,31.5,587.5,29.8L587.5,29.8z"/>
<path class="st0" d="M586.7,31.5c-0.7-3.9-12.3-5.4-14.8-3.6c-3.5,2.4,2.7,5,2.8,5.4c0.1,0.4-5.1,4.7-1,6
	C576.6,40.2,587.2,35.5,586.7,31.5L586.7,31.5z"/>
<path class="st0" d="M588.1,32.8c-3.9-0.5-8.9,10-8,13c1.2,4.1,5.6-1,6-1c0.4,0.1,2.9,6.3,5.4,2.8C593.2,45.1,592,33.6,588.1,32.8
	L588.1,32.8z"/>
<path class="st1" d="M588.6,29.9c0.3-1.3,0.6-3.1,0.3-3.9c-0.5,0.7-0.8,2.3-0.9,3.5c-0.7-2-2.2-5-3.4-5.9c0,1.6,1.7,4.8,2.9,6.5
	c-0.2,0.1-0.3,0.3-0.4,0.5c-1.1-0.7-2.9-1.7-3.8-1.7c0.6,0.8,2.4,1.7,3.7,2.2c0,0.1,0,0.2,0,0.2c-2.1,0-5.6,0.4-6.9,1.4
	c1.6,0.5,5.2-0.1,7.2-0.7l0,0c-1,0.8-2.6,2.3-2.9,3.2c0.9-0.3,2.4-1.8,3.2-2.9c0.1,0,0.1,0.1,0.2,0.1c0.1,0.1,0.3,0.1,0.4,0.1
	c-0.6,1.9-1.5,5.7-0.9,7.4c1-1.3,1.4-4.7,1.5-6.8c0.5,1.2,1.2,2.5,1.9,3c0-0.9-0.9-2.7-1.6-3.8c0.2-0.1,0.3-0.2,0.4-0.4
	c1.5,1.2,5.1,3.3,7,3.3c-1.1-1.5-5-3.3-6.8-3.8c0-0.1,0-0.1,0-0.2c1.3-0.1,3.1-0.4,3.8-0.9c-0.8-0.3-2.6,0-3.9,0.3l0,0
	c1.6-1.1,4.7-3.8,5.2-5.5c-1.7,0.5-4.4,3.4-5.5,5c-0.1-0.1-0.2-0.2-0.4-0.3C588.8,30,588.7,29.9,588.6,29.9L588.6,29.9z"/>
<path class="st4" d="M590.7,32.5c1-1.9-0.5-4.5-3.3-4c-2.6,1.2-2.3,4.2-0.4,5.2C588.4,34.4,590,33.9,590.7,32.5L590.7,32.5z"/>
<path class="st0" d="M371,29.6c-0.9,3.8-12.5,5.8-14.9,3.9c-3.4-2.6,2.9-5.8,3-6.2c0.1-0.4-4.8-4.9-0.8-6
	C361.3,20.5,371.6,25.7,371,29.6L371,29.6z"/>
<path class="st0" d="M372.4,28.4c-3.9,0.3-8.5-10.4-7.4-13.3c1.4-4,5.5,1.3,5.9,1.2c0.4,0,3.2-6.1,5.5-2.6
	C378.1,16.4,376.3,27.8,372.4,28.4L372.4,28.4z"/>
<path class="st0" d="M374,29.4c-1.5-3.6,7.2-11.2,10.3-11.2c4.2,0.1,0.5,5.7,0.7,6c0.2,0.4,6.8,2.1,4.1,5.4
	C387.2,32,375.8,32.9,374,29.4L374,29.4z"/>
<path class="st0" d="M373.6,31.1c3-2.5,12.9,3.4,13.8,6.4c1.2,4.1-5.2,2.2-5.5,2.5c-0.3,0.3,1,7.8-2.9,6.3
	C376,45.2,370.7,33.9,373.6,31.1L373.6,31.1z"/>
<path class="st0" d="M371.7,31.3c3.3,2,0.7,14.3-1.8,16.1c-3.5,2.4-3.7-5.3-4.1-5.5c-0.3-0.2-6.2,3.1-5.9-1.1
	C360,37.7,368.2,29.5,371.7,31.3L371.7,31.3z"/>
<path class="st1" d="M373.1,28.7c0.5-1.2,1.4-2.8,2.2-3.3c0,0.8-0.8,2.2-1.5,3.3c1.8-1.1,4.8-2.5,6.3-2.5c-1,1.3-4.3,2.7-6.3,3.2
	c0.1,0.2,0.1,0.4,0.1,0.6c1.3,0.1,3.3,0.5,4,1.1c-0.9,0.3-3-0.2-4.2-0.6c0,0.1-0.1,0.1-0.1,0.2c1.6,1.3,4.1,3.8,4.6,5.4
	c-1.6-0.6-4-3.3-5.1-5l0,0c0.3,1.3,0.6,3.4,0.2,4.3c-0.5-0.8-0.7-2.9-0.7-4.2c-0.1,0-0.1,0-0.2,0c-0.2,0-0.3-0.1-0.4-0.2
	c-0.7,1.9-2.4,5.4-3.9,6.4c0.1-1.6,1.8-4.6,3.1-6.2c-1.1,0.6-2.5,1.2-3.4,1.2c0.6-0.7,2.4-1.5,3.6-1.9c-0.1-0.2-0.1-0.3-0.1-0.5
	c-1.9,0-6.1-0.6-7.5-1.7c1.8-0.5,5.9,0.6,7.6,1.3c0-0.1,0.1-0.1,0.1-0.2c-1-0.9-2.2-2.2-2.4-3.1c0.8,0.3,2.1,1.6,2.8,2.7l0,0
	c-0.6-1.8-1.3-5.9-0.6-7.6c1,1.4,1.3,5.4,1.2,7.4c0.2,0,0.3,0,0.5,0C372.9,28.7,373,28.7,373.1,28.7L373.1,28.7z"/>
<path class="st4" d="M369.8,29.4c0.4-2.1,3.2-3.2,5.1-1.1c1.3,2.6-0.8,4.7-2.9,4.3C370.5,32.4,369.5,30.9,369.8,29.4L369.8,29.4z"/>
<path class="st0" d="M202.9,29.6c1,4.2,13.7,5.3,16.4,3.2c3.7-2.8-3.2-5.4-3.3-5.8c-0.1-0.4,5.3-5.4,0.8-6.6
	C213.5,19.5,202.2,25.3,202.9,29.6L202.9,29.6z"/>
<path class="st0" d="M201.3,28.2c4.3,0.4,9.3-11.4,8.2-14.6c-1.6-4.4-6.1,1.4-6.5,1.4c-0.4-0.1-3.5-6.7-6-2.8
	C195.1,15,197,27.6,201.3,28.2L201.3,28.2z"/>
<path class="st0" d="M199.6,29.3c1.6-4-8-12.4-11.4-12.3c-4.7,0.1-0.6,6.2-0.7,6.6c-0.2,0.4-7.5,2.5-4.6,6.1
	C185,32.4,197.6,33.2,199.6,29.3L199.6,29.3z"/>
<path class="st0" d="M200,31.3c-3.3-2.8-14.2,3.8-15.2,7.1c-1.3,4.5,5.8,2.4,6.1,2.7c0.3,0.3-1.1,7.5,3.2,5.8
	C197.3,45.7,203.2,34.4,200,31.3L200,31.3z"/>
<path class="st0" d="M202.1,31.4c-3.7,2.2-0.8,14.7,2,16.6c3.8,2.6,4.1-4.7,4.5-4.9s6.8,3.4,6.5-1.2C214.9,38.5,206,29.4,202.1,31.4
	L202.1,31.4z"/>
<path class="st1" d="M200.6,28.6c-0.6-1.3-1.6-3.1-2.4-3.6c0,0.9,0.9,2.5,1.7,3.6c-2-1.2-5.3-2.8-7-2.7c1.1,1.4,4.7,2.9,6.9,3.6
	c-0.1,0.2-0.1,0.5-0.1,0.7c-1.4,0.1-3.6,0.5-4.4,1.2c1,0.3,3.3-0.2,4.6-0.7c0,0.1,0.1,0.2,0.2,0.2c-1.8,1.4-4.5,4.2-5,6
	c1.7-0.6,4.4-3.7,5.7-5.5l0,0c-0.3,1.4-0.7,3.7-0.3,4.7c0.6-0.9,0.8-3.2,0.8-4.7c0.1,0,0.2,0,0.2,0c0.2,0,0.3-0.1,0.5-0.2
	c0.7,2,2.7,5.9,4.3,7c-0.1-1.8-2-5.1-3.4-6.9c1.2,0.7,2.8,1.3,3.7,1.3c-0.6-0.8-2.6-1.7-4-2.1c0.1-0.2,0.1-0.4,0.1-0.6
	c2,0,6.7-0.7,8.3-1.9c-1.9-0.6-6.5,0.6-8.4,1.4c0-0.1-0.1-0.2-0.1-0.2c1.1-1,2.4-2.4,2.7-3.4c-0.9,0.3-2.3,1.8-3.1,3l0,0
	c0.6-2,1.4-6.5,0.7-8.3c-1.1,1.6-1.4,5.9-1.3,8.1c-0.2,0-0.3,0-0.5,0C200.8,28.5,200.7,28.6,200.6,28.6L200.6,28.6z"/>
<path class="st4" d="M204.2,29.4c-0.5-2.4-3.5-3.5-5.6-1.2c-1.4,2.8,0.9,5.2,3.2,4.8C203.4,32.6,204.5,31,204.2,29.4L204.2,29.4z"/>
<path class="st1" d="M347.4,31.9c0.1-3.5-3.9-6.4-8.9-6.5s-9.1,2.6-9.2,6c-0.1,3.5,3.9,6.4,8.9,6.5
	C343.1,38.1,347.3,35.4,347.4,31.9L347.4,31.9z"/>
<path class="st1" d="M334.3,12.9c-3.3-1.2-7.3,1.7-8.9,6.5c-1.7,4.7-0.4,9.5,2.9,10.6c3.3,1.2,7.3-1.7,8.9-6.5
	C338.9,18.8,337.6,14.1,334.3,12.9L334.3,12.9z"/>
<path class="st1" d="M312.2,19.5c-2.1,2.8-0.6,7.5,3.4,10.5s8.9,3.3,11,0.5s0.6-7.5-3.4-10.5C319.3,16.9,314.3,16.7,312.2,19.5
	L312.2,19.5z"/>
<path class="st1" d="M311.6,42.5c2,2.9,6.9,2.9,11,0c4.1-2.8,5.9-7.5,3.9-10.3c-2-2.9-6.9-2.9-11,0C311.4,35,309.6,39.6,311.6,42.5
	L311.6,42.5z"/>
<path class="st1" d="M333.3,50.2c3.3-1,4.9-5.7,3.4-10.5c-1.4-4.8-5.3-7.9-8.6-6.9c-3.3,1-4.9,5.7-3.4,10.5S330,51.2,333.3,50.2
	L333.3,50.2z"/>
<path class="st0" d="M340.9,31.7c0.1-2.2-2.5-4.1-5.7-4.2c-3.2-0.1-5.9,1.7-5.9,3.9c-0.1,2.2,2.5,4.1,5.7,4.2
	C338.2,35.7,340.8,34,340.9,31.7L340.9,31.7z"/>
<path class="st0" d="M332.5,19.5c-2.1-0.7-4.7,1.1-5.8,4.2c-1.1,3-0.2,6.1,1.9,6.8s4.7-1.1,5.8-4.2
	C335.4,23.3,334.6,20.3,332.5,19.5L332.5,19.5z"/>
<path class="st0" d="M318.3,23.7c-1.4,1.8-0.4,4.8,2.2,6.8c2.6,2,5.7,2.1,7.1,0.3s0.4-4.8-2.2-6.8C322.8,22.1,319.6,22,318.3,23.7
	L318.3,23.7z"/>
<path class="st0" d="M317.9,38.6c1.3,1.8,4.4,1.9,7.1,0c2.7-1.8,3.8-4.8,2.5-6.6c-1.3-1.8-4.4-1.9-7.1,0
	C317.7,33.7,316.6,36.7,317.9,38.6L317.9,38.6z"/>
<path class="st0" d="M331.9,43.5c2.1-0.6,3.1-3.7,2.2-6.7c-0.9-3.1-3.4-5.1-5.5-4.4c-2.1,0.6-3.1,3.7-2.2,6.7
	C327.2,42.1,329.7,44.1,331.9,43.5L331.9,43.5z"/>
<path class="st5" d="M333.2,31.5c0.1-4.3-4.8-7.6-9.4-4.3c-3.6,4.4-0.5,9.5,3.8,9.6C330.7,37,333.2,34.6,333.2,31.5L333.2,31.5z"/>
<path class="st2" d="M246.3,30.9c-0.6,4.1,10.4,9.5,13.6,8.6c4.3-1.3-1-5.9-0.9-6.3s6.6-3,3-5.6C259.3,25.6,247.2,26.8,246.3,30.9
	L246.3,30.9z"/>
<path class="st2" d="M245.4,29.1c3.7,1.8,12.3-7,12.4-10.2c0.1-4.5-5.9-0.9-6.3-1.1c-0.4-0.2-0.8-7.2-4.4-4.6
	C244.4,15.1,241.8,27,245.4,29.1L245.4,29.1z"/>
<path class="st2" d="M243.5,29.5c2.9-3-2.8-13.8-5.9-14.9c-4.2-1.5-2.6,5.4-2.9,5.7c-0.3,0.3-7.1-1.5-5.8,2.8
	C229.8,26.1,240.4,32.3,243.5,29.5L243.5,29.5z"/>
<path class="st2" d="M243.2,31.4c-2-3.6-14-1.6-16,1c-2.7,3.5,4.3,4.2,4.5,4.5c0.2,0.4-3.6,6.3,0.8,6.3
	C235.8,43.3,244.9,35.2,243.2,31.4L243.2,31.4z"/>
<path class="st2" d="M245,32.3c-4.1,0.7-5.8,12.9-4,15.6c2.5,3.7,5.3-2.8,5.7-2.9c0.4-0.1,4.9,5.4,6.3,1.2
	C254,43,249.1,31.8,245,32.3L245,32.3z"/>
<path class="st3" d="M244.6,29.2c-0.1-1.4-0.4-3.3-0.9-4c-0.3,0.8,0,2.5,0.3,3.8c-1.3-1.8-3.7-4.3-5.3-4.8c0.5,1.6,3.2,4.3,4.9,5.6
	c-0.1,0.2-0.2,0.4-0.3,0.6c-1.3-0.4-3.4-0.8-4.4-0.5c0.8,0.6,3,0.9,4.4,1c0,0.1,0,0.2,0.1,0.3c-2.1,0.7-5.5,2.2-6.5,3.6
	c1.8,0,5.2-1.8,7-3l0,0c-0.8,1.1-1.9,3.1-1.9,4.1c0.9-0.6,1.8-2.6,2.3-3.9c0.1,0,0.1,0,0.2,0.1c0.2,0,0.3,0,0.5,0
	c-0.1,2.1,0.4,6.2,1.4,7.7c0.6-1.6-0.1-5.2-0.6-7.3c0.9,1,2,2.2,2.8,2.4c-0.3-0.9-1.8-2.4-2.8-3.3c0.1-0.1,0.2-0.3,0.3-0.5
	c1.8,0.7,6.2,1.7,8.1,1.2c-1.5-1.2-6-1.7-8-1.7c0-0.1,0-0.2,0-0.2c1.3-0.5,3-1.3,3.6-2.1c-0.9,0-2.6,0.8-3.8,1.6l0,0
	c1.2-1.6,3.5-5.3,3.5-7.2c-1.5,1.1-3.3,4.8-4,6.8c-0.1-0.1-0.3-0.1-0.5-0.2C244.8,29.2,244.7,29.2,244.6,29.2L244.6,29.2z"/>
<path class="st4" d="M247.5,31.1c0.4-2.3-1.9-4.4-4.6-3c-2.2,2.1-1,5,1.2,5.4C245.8,33.8,247.3,32.7,247.5,31.1L247.5,31.1z"/>
<path class="st2" d="M415.8,30.5c0.2,5.3,9.7,9.7,13.1,7.9c4.5-2.5,1.4-7.2,1.4-7.7s3.1-5.2-1.4-7.7C425.6,21,416,25.2,415.8,30.5
	L415.8,30.5z"/>
<path class="st2" d="M414.4,28.8c5.1,1.5,12.2-6.3,11.5-10c-1-5.1-6.4-3.6-6.9-3.7c-0.5-0.2-4-4.5-7.8-1
	C408.4,16.6,409.4,27,414.4,28.8L414.4,28.8z"/>
<path class="st2" d="M412.4,29.6c3-4.4-2.2-13.6-6-14c-5.1-0.6-5.4,5-5.7,5.4c-0.3,0.4-5.6,2.4-3.4,7.1
	C398.9,31.5,409.1,33.8,412.4,29.6L412.4,29.6z"/>
<path class="st2" d="M412.5,31.8c-3.3-4.2-13.6-2.1-15.2,1.3c-2.2,4.7,3.1,6.7,3.4,7.1c0.3,0.4,0.6,6,5.7,5.4
	C410.2,45.2,415.5,36.2,412.5,31.8L412.5,31.8z"/>
<path class="st2" d="M414.6,32.3c-5,1.8-6.2,12.3-3.4,14.8c3.8,3.5,7.3-0.9,7.8-1c0.5-0.2,5.9,1.3,6.9-3.8
	C426.7,38.6,419.7,30.8,414.6,32.3L414.6,32.3z"/>
<path class="st3" d="M418.2,29.8c0.7-0.3,1.3-0.6,1.7-1c-0.6-0.1-1.4,0-2.3,0.2c2.2-1.4,4.8-3.3,5.5-4.9c-1.8,0.1-4.6,2.1-6.7,3.8
	c0.6-0.9,1-1.8,1-2.4c-0.7,0.3-1.2,0.4-1.8,1.4c0.7-2.2,1.5-5.4,1.3-7.3c-1.3,1.7-2.1,4.6-2.7,6.7c-0.1-0.5-0.2-1.7-0.4-2
	c-0.2,0.3-0.4,1-0.5,1.5c-0.6-2.3-1.5-4.8-2.7-5.9c-0.5,1.8,0.5,5.1,1.5,7.5c-0.6-0.8-1.3-1.5-2-1.8c0.1,0.7,0.6,1.6,1.2,2.4
	c-2.1-1.7-5-3.5-6.9-3.5c0.7,1.4,3,3.1,5.1,4.3c-0.6-0.1-1.2-0.1-1.6,0c0.3,0.3,0.9,0.7,1.5,0.9c-2.5-0.2-5.4-0.1-6.8,0.8
	c1.5,1,4.9,1.1,7.5,0.8c-0.9,0.3-1.8,0.8-2.2,1.3c0.6,0.1,1.5,0,2.4-0.3c-2.2,1.4-4.7,3.5-5.4,5.2c1.6-0.2,3.9-1.8,5.8-3.5
	c-0.3,0.6-0.6,1.1-0.6,1.6c0.4-0.2,0.8-0.5,1.3-1c-1,2.3-1.8,4.9-1.5,6.5c1.4-1.1,2.7-4.3,3.3-6.9c0,1,0.2,2,0.5,2.6
	c0.4-0.6,0.5-1.6,0.5-2.7c0.7,2.6,2,5.9,3.5,7c0.3-1.7-0.7-4.7-1.8-7.1c0.6,0.7,1.2,1.2,1.8,1.4c-0.1-0.5-0.3-1-0.7-1.6
	c2,1.5,4.4,3.1,6,3.1c-0.7-1.6-3.1-3.4-5.3-4.7c0.8,0.2,1.5,0.3,2.1,0.1c-0.3-0.4-0.9-0.7-1.6-1c2.5,0.2,5.5,0,6.9-0.8
	C423.7,29.7,420.8,29.6,418.2,29.8L418.2,29.8z"/>
<path class="st5" d="M417.3,30.6c0-2.6-3-4.5-5.7-2.4c-2.1,2.7-0.2,5.7,2.4,5.7C415.8,33.9,417.3,32.4,417.3,30.6L417.3,30.6z"/>
<path class="st0" d="M543.1,31c-1.3-1.1-2.4-11.1,0.9-14.3C546.9,20.2,544.6,30.1,543.1,31L543.1,31z M544.4,33.6
	c1.6-0.6,10.8,3.5,12,7.9C551.9,42.2,544.5,35.3,544.4,33.6L544.4,33.6z M543.8,34.2c1.7,0.3,7.6,8.5,6.4,12.8
	C546,45.4,543,35.7,543.8,34.2L543.8,34.2z M542.9,34.3c1.3,1.1,2.4,11.1-0.9,14.3C539.2,45.1,541.5,35.3,542.9,34.3L542.9,34.3z
	 M542.1,34.1c0.6,1.6-3.5,10.8-7.9,12C533.5,41.5,540.4,34.2,542.1,34.1L542.1,34.1z M541.5,33.4c-0.3,1.7-8.5,7.6-12.8,6.4
	C530.3,35.6,540,32.7,541.5,33.4L541.5,33.4z M541.4,32.6c-1.1,1.3-11.1,2.4-14.3-0.9C530.6,28.8,540.4,31.2,541.4,32.6L541.4,32.6z
	 M541.6,31.7c-1.6,0.6-10.8-3.5-12-7.9C534.2,23.1,541.5,30.1,541.6,31.7L541.6,31.7z M542.3,31.2c-1.7-0.3-7.6-8.5-6.4-12.8
	C540.1,20,543.1,29.7,542.3,31.2L542.3,31.2z M544,31.3c-0.6-1.6,3.5-10.8,7.9-12C552.6,23.8,545.7,31.2,544,31.3L544,31.3z
	 M544.5,31.9c0.3-1.7,8.5-7.6,12.8-6.4C555.7,29.8,546,32.7,544.5,31.9L544.5,31.9z M544.7,32.8c1.1-1.3,11.1-2.4,14.3,0.9
	C555.5,36.5,545.6,34.2,544.7,32.8L544.7,32.8z"/>
<path class="st1" d="M543.5,31.1c-1-1.4,0.2-11.4,4.1-13.7C549.6,21.4,545.1,30.5,543.5,31.1L543.5,31.1z M544.2,33.9
	c1.7-0.2,9.7,5.9,9.8,10.4C549.5,44,543.9,35.5,544.2,33.9L544.2,33.9z M543.4,34.3c1.5,0.7,5.5,10,3.3,14
	C543,45.7,542.3,35.6,543.4,34.3L543.4,34.3z M542.6,34.3c1,1.4-0.2,11.4-4.1,13.7C536.5,43.9,541,34.9,542.6,34.3L542.6,34.3z
	 M541.8,33.8c0.2,1.7-5.9,9.7-10.4,9.8C531.7,39.1,540.2,33.5,541.8,33.8L541.8,33.8z M541.4,33.1c-0.7,1.5-10,5.5-14,3.3
	C530,32.6,540.1,32,541.4,33.1L541.4,33.1z M541.4,32.2c-1.4,1-11.4-0.2-13.7-4.1C531.8,26.1,540.9,30.6,541.4,32.2L541.4,32.2z
	 M541.9,31.4c-1.7,0.2-9.7-5.9-9.8-10.4C536.6,21.3,542.2,29.8,541.9,31.4L541.9,31.4z M542.7,31c-1.5-0.7-5.5-10-3.3-14
	C543.1,19.6,543.7,29.7,542.7,31L542.7,31z M544.3,31.5c-0.2-1.7,5.9-9.7,10.4-9.8C554.4,26.2,545.9,31.8,544.3,31.5L544.3,31.5z
	 M544.7,32.3c0.7-1.5,10-5.5,14-3.3C556.1,32.8,546,33.4,544.7,32.3L544.7,32.3z M544.7,33.2c1.4-1,11.4,0.2,13.7,4.1
	C554.3,39.3,545.2,34.7,544.7,33.2L544.7,33.2z"/>
<path class="st0" d="M543.3,31.9c-0.5-0.6,0.1-5.4,2-6.5C546.2,27.3,544,31.6,543.3,31.9L543.3,31.9z M543.6,33.3
	c0.8-0.1,4.6,2.8,4.7,5C546.1,38.1,543.5,34,543.6,33.3L543.6,33.3z M543.2,33.4c0.7,0.3,2.6,4.7,1.6,6.6
	C543,38.9,542.7,34.1,543.2,33.4L543.2,33.4z M542.8,33.4c0.5,0.6-0.1,5.4-2,6.5C539.9,38,542.1,33.7,542.8,33.4L542.8,33.4z
	 M542.5,33.2c0.1,0.8-2.8,4.6-5,4.7C537.7,35.7,541.7,33.1,542.5,33.2L542.5,33.2z M542.3,32.9c-0.3,0.7-4.7,2.6-6.6,1.6
	C536.9,32.6,541.7,32.3,542.3,32.9L542.3,32.9z M542.3,32.4c-0.6,0.5-5.4-0.1-6.5-2C537.7,29.5,542,31.7,542.3,32.4L542.3,32.4z
	 M542.5,32.1c-0.8,0.1-4.6-2.8-4.7-5C540,27.3,542.6,31.3,542.5,32.1L542.5,32.1z M542.9,31.9c-0.7-0.3-2.6-4.7-1.6-6.6
	C543.1,26.5,543.4,31.3,542.9,31.9L542.9,31.9z M543.6,32.1c-0.1-0.8,2.8-4.6,5-4.7C548.4,29.6,544.4,32.3,543.6,32.1L543.6,32.1z
	 M543.8,32.5c0.3-0.7,4.7-2.6,6.6-1.6C549.2,32.7,544.4,33,543.8,32.5L543.8,32.5z M543.8,32.9c0.6-0.5,5.4,0.1,6.5,2
	C548.4,35.8,544.1,33.7,543.8,32.9L543.8,32.9z"/>
<path class="st4" d="M545.9,32.8c0.1-2.3-2.4-4.1-4.9-2.4c-2,2.3-0.5,5,1.8,5.1C544.5,35.6,545.8,34.4,545.9,32.8L545.9,32.8z"/>
<rect x="0.2" y="1.5" class="st6" width="614.5" height="57.3"/>
<text transform="matrix(1 0 0 1 7.9961 43.2625)" class="st7 st8 st9">Weather app</text>
</svg>
